<svg id="SvgjsSvg1001" width="288" height="288" xmlns="http://www.w3.org/2000/svg" version="1.1" xmlns:xlink="http://www.w3.org/1999/xlink" xmlns:svgjs="http://svgjs.com/svgjs"><defs id="SvgjsDefs1002"></defs><g id="SvgjsG1008"><svg xmlns="http://www.w3.org/2000/svg" version="1.0" viewBox="0 0 200 200" width="288" height="288"><path d="M910 1745 l0 -85 -85 0 -85 0 0 -80 0 -80 -80 0 -80 0 0 -80 0 -80-80 0 -80 0 0 -80 0 -80 -80 0 -80 0 0 -80 0 -80 -80 0 -80 0 0 -95 0 -95 80
0 80 0 0 -325 0 -325 740 0 740 0 0 325 0 325 80 0 80 0 0 95 0 95 -80 0 -80
0 0 80 0 80 -80 0 -80 0 0 240 0 241 -92 -3 -93 -3 -3 -77 -3 -78 -64 0 -65 0
0 80 0 80 -85 0 -85 0 0 85 0 85 -90 0 -90 0 0 -85z m160 -345 l0 -80 80 0 79
0 3 -82 3 -83 78 -3 77 -3 0 -74 0 -75 80 0 80 0 0 -320 0 -320 -145 0 -145 0
0 240 0 240 -260 0 -260 0 0 -240 0 -240 -145 0 -145 0 0 320 0 320 80 0 80 0
0 75 0 74 78 3 77 3 3 83 3 82 79 0 80 0 0 80 0 80 70 0 70 0 0 -80z m0 -890
l0 -150 -70 0 -70 0 0 150 0 150 70 0 70 0 0 -150z" transform="matrix(.1 0 0 -.1 0 200)" fill="#ffffff" class="svgShape color000000-0 selectable"></path></svg></g></svg>